<svg width="44" height="44" viewBox="0 0 44 44" fill="none" xmlns="http://www.w3.org/2000/svg">
<path d="M16.9125 11H27.0875L27.8781 11.507C32.6734 14.575 42.625 22.3094 42.625 35.75C42.625 39.5484 39.5484 42.625 35.75 42.625H8.25C4.45156 42.625 1.375 39.5484 1.375 35.75C1.375 22.3094 11.3266 14.575 16.1219 11.507L16.9125 11ZM27.4398 9.625H16.5602L16.5172 9.56484L11.6102 2.44922C11.2922 1.99375 11.6187 1.375 12.1773 1.375H31.8227C32.3727 1.375 32.6992 1.99375 32.3898 2.44922L27.4828 9.56484L27.4398 9.625ZM14.2398 11.1031C9.03203 14.6781 0 22.593 0 35.75C0 40.3047 3.69531 44 8.25 44H35.75C40.3047 44 44 40.3047 44 35.75C44 22.593 34.968 14.6781 29.7602 11.1031C29.3562 10.8195 28.9695 10.5703 28.6172 10.3469L29.3992 9.2125L33.5242 3.23125C34.4609 1.86484 33.4813 0 31.8227 0H12.1773C10.5188 0 9.53906 1.86484 10.4758 3.23125L14.6008 9.2125L15.3828 10.3469C15.0305 10.5703 14.6438 10.8281 14.2398 11.1031ZM22.6875 19.25C22.6875 18.8719 22.3781 18.5625 22 18.5625C21.6219 18.5625 21.3125 18.8719 21.3125 19.25V20.6594C20.5906 20.7195 19.9203 20.8828 19.3359 21.1492C18.2703 21.6305 17.4539 22.4727 17.2563 23.6242C17.1359 24.3289 17.2047 24.9477 17.4625 25.4977C17.7203 26.0391 18.1328 26.443 18.5969 26.7609C19.4562 27.3453 20.6336 27.6977 21.682 28.0156L21.8281 28.0586C22.9797 28.4023 23.9766 28.7289 24.6555 29.2188C24.9734 29.4508 25.1969 29.7086 25.3172 29.9922C25.4375 30.2758 25.4977 30.6453 25.4117 31.1523C25.2914 31.857 24.8531 32.3641 24.1141 32.682C23.3578 33.0086 22.3008 33.1117 21.0719 32.9141C20.4617 32.8109 19.4219 32.4586 18.5969 32.1836C18.4164 32.1234 18.2531 32.0633 18.107 32.0203C17.7461 31.9 17.3594 32.0977 17.2391 32.4586C17.1187 32.8195 17.3164 33.2062 17.6773 33.3266C17.7977 33.3695 17.9438 33.4125 18.107 33.4727C18.9148 33.7477 20.118 34.1602 20.857 34.2805C21.0117 34.3062 21.175 34.3234 21.3297 34.3406V35.75C21.3297 36.1281 21.6391 36.4375 22.0172 36.4375C22.3953 36.4375 22.7047 36.1281 22.7047 35.75V34.3664C23.418 34.3234 24.0797 34.1859 24.6555 33.9367C25.7383 33.4727 26.5547 32.6133 26.7609 31.3844C26.8898 30.6539 26.8211 30.0094 26.5805 29.4422C26.3312 28.875 25.9359 28.4453 25.4633 28.1102C24.5609 27.457 23.3234 27.0789 22.232 26.7523L22.2062 26.7438C21.0547 26.4 20.0578 26.0992 19.3789 25.6352C19.0523 25.4117 18.8375 25.1797 18.7172 24.9219C18.5969 24.6727 18.5367 24.3375 18.6227 23.8734C18.7258 23.2891 19.1555 22.7648 19.9203 22.4125C20.6938 22.0602 21.7594 21.9227 22.9625 22.1117C23.3492 22.1719 24.5523 22.4039 24.9305 22.507C25.3 22.6016 25.6781 22.3867 25.7727 22.0172C25.8672 21.6477 25.6523 21.2695 25.2828 21.175C24.8359 21.0547 23.5813 20.8141 23.1688 20.7539C23.0141 20.7281 22.8508 20.7109 22.6961 20.6938V19.25H22.6875Z" fill="#4361EE"/>
</svg>
