<svg width="489" height="245" viewBox="0 0 489 245" fill="none" xmlns="http://www.w3.org/2000/svg">
<path d="M258.139 245C180.272 245 111.087 209.15 57.9718 141.241C18.8458 91.2137 2.17456 41.1658 1.48838 39.0574C-3.62992 23.4371 4.87725 6.61903 20.4912 1.49165C36.1052 -3.63572 52.9165 4.88189 58.0418 20.5022C58.1678 20.8734 72.7385 64.0148 105.906 105.895C148.015 159.06 199.646 185.804 259.357 185.461C313.978 185.118 353.496 157.716 377.036 134.782C408.992 103.647 425.607 67.7763 430.131 46.5103C433.547 30.4277 449.357 20.1659 465.427 23.5842C481.503 27.0024 491.76 42.8119 488.343 58.8945C479.983 98.2183 453.243 143.643 418.557 177.434C387.182 207.995 334.164 244.531 259.728 244.993C259.203 244.993 258.671 244.993 258.146 244.993L258.139 245Z" fill="url(#paint0_linear_2745_1210)"/>
<defs>
<linearGradient id="paint0_linear_2745_1210" x1="485.361" y1="137.547" x2="-3.75621" y2="116.457" gradientUnits="userSpaceOnUse">
<stop stop-color="#4361EE" stop-opacity="0.9"/>
<stop offset="1" stop-color="#4361EE"/>
</linearGradient>
</defs>
</svg>
