<svg width="44" height="44" viewBox="0 0 44 44" fill="none" xmlns="http://www.w3.org/2000/svg">
<path d="M22.9023 11.0258C23.4266 11.0516 23.9422 11.1031 24.4578 11.1719L30.9891 1.375H41.4305L32.6648 14.5234C33.0344 14.7984 33.3953 15.0906 33.7391 15.3914L43.0805 1.375L44 0H42.35H30.25L22.9023 11.0258ZM10.2609 15.3914C10.6047 15.0906 10.9656 14.7984 11.3352 14.5234L2.56953 1.375H13.0109L19.5422 11.1633C20.0578 11.0945 20.5734 11.043 21.0977 11.0172L13.75 0H1.65H0L0.919531 1.375L10.2609 15.3914ZM22 15.125C25.6467 15.125 29.1441 16.5737 31.7227 19.1523C34.3013 21.7309 35.75 25.2283 35.75 28.875C35.75 32.5217 34.3013 36.0191 31.7227 38.5977C29.1441 41.1763 25.6467 42.625 22 42.625C18.3533 42.625 14.8559 41.1763 12.2773 38.5977C9.69866 36.0191 8.25 32.5217 8.25 28.875C8.25 25.2283 9.69866 21.7309 12.2773 19.1523C14.8559 16.5737 18.3533 15.125 22 15.125ZM22 44C26.0114 44 29.8585 42.4065 32.695 39.57C35.5315 36.7335 37.125 32.8864 37.125 28.875C37.125 24.8636 35.5315 21.0165 32.695 18.18C29.8585 15.3435 26.0114 13.75 22 13.75C17.9886 13.75 14.1415 15.3435 11.305 18.18C8.46852 21.0165 6.875 24.8636 6.875 28.875C6.875 32.8864 8.46852 36.7335 11.305 39.57C14.1415 42.4065 17.9886 44 22 44ZM22.6188 20.3242L22 19.0695L21.3813 20.3156L19.1125 24.9047L14.0508 25.6437L12.6758 25.8414L13.6727 26.8125L17.3336 30.3875L16.4656 35.432L16.2336 36.807L17.4625 36.1625L22 33.7734L26.5289 36.1539L27.7578 36.7984L27.5258 35.4234L26.6578 30.3789L30.3187 26.8039L31.3156 25.8328L29.9406 25.6352L24.8789 24.8961L22.6102 20.307L22.6188 20.3242ZM20.1953 25.8414L22 22.1805L23.8047 25.8414L23.968 26.168L24.3289 26.2195L28.368 26.8039L25.4461 29.657L25.1883 29.9062L25.2484 30.2586L25.9359 34.2891L22.318 32.3898L22 32.218L21.682 32.3898L18.0641 34.2891L18.7516 30.2586L18.8117 29.9062L18.5539 29.657L15.632 26.8039L19.6711 26.2195L20.032 26.168L20.1953 25.8414Z" fill="#4361EE"/>
</svg>
