<svg width="49" height="43" viewBox="0 0 49 43" fill="none" xmlns="http://www.w3.org/2000/svg">
<path d="M1.53125 0.767857C1.53125 0.345536 1.18672 0 0.765625 0C0.344531 0 0 0.345536 0 0.767857V36.0893C0 39.9094 3.08164 43 6.89062 43H48.2344C48.6555 43 49 42.6545 49 42.2321C49 41.8098 48.6555 41.4643 48.2344 41.4643H6.89062C3.9334 41.4643 1.53125 39.0551 1.53125 36.0893V0.767857ZM33.6875 9.21429C33.2664 9.21429 32.9219 9.55982 32.9219 9.98214C32.9219 10.4045 33.2664 10.75 33.6875 10.75H43.3248L27.5625 26.5583L18.9205 17.8911C18.6238 17.5935 18.1357 17.5935 17.8391 17.8911L8.65156 27.1054C8.35488 27.4029 8.35488 27.8924 8.65156 28.19C8.94824 28.4875 9.43633 28.4875 9.73301 28.19L18.375 19.5132L27.017 28.1804C27.3137 28.4779 27.8018 28.4779 28.0984 28.1804L44.4062 11.8346V21.5C44.4062 21.9223 44.7508 22.2679 45.1719 22.2679C45.593 22.2679 45.9375 21.9223 45.9375 21.5V9.98214C45.9375 9.55982 45.593 9.21429 45.1719 9.21429H33.6875Z" fill="#4361EE"/>
</svg>
