<svg width="50" height="35" viewBox="0 0 50 35" fill="none" xmlns="http://www.w3.org/2000/svg">
<path d="M41.9659 14.7031C40.4846 13.3233 38.9962 11.9479 37.5244 10.5591C35.2091 8.37641 32.8986 6.18924 30.5904 3.99759C29.3855 2.8548 29.2296 1.58678 30.1699 0.656446C31.1456 -0.307432 32.5891 -0.206795 33.7987 0.938229C38.8427 5.70394 43.8819 10.4741 48.9165 15.2466C50.3364 16.5929 50.3623 17.6976 48.985 19.0037C43.8985 23.8342 38.8025 28.6559 33.7018 33.4708C32.3977 34.7008 30.7156 34.6605 29.8604 33.4104C29.2178 32.4689 29.4304 31.42 30.4912 30.4136C34.0231 27.0636 37.5575 23.7157 41.1036 20.379C41.3777 20.1219 41.7533 19.9586 42.0841 19.7529C42.0108 19.6052 41.94 19.4576 41.8667 19.31H40.5697C28.1664 19.31 15.7655 19.31 3.36229 19.31C2.88979 19.31 2.41256 19.3324 1.94714 19.2743C0.76824 19.1334 -0.0208433 18.2344 0.00041939 17.1162C0.0216821 16.0449 0.79659 15.1951 1.9306 15.0475C2.35586 14.9916 2.79529 15.0095 3.22763 15.0095C15.6687 15.0095 28.1121 15.0095 40.5531 15.0095H41.8171C41.8667 14.9089 41.9187 14.806 41.9683 14.7054L41.9659 14.7031Z" fill="black"/>
</svg>
