<svg width="65" height="39" viewBox="0 0 65 39" fill="none" xmlns="http://www.w3.org/2000/svg">
<path d="M25.9898 0C22.7398 0 19.5914 1.15129 17.1031 3.25011L14.625 5.33874V7.46812L18.1492 4.4931C20.343 2.64899 23.1258 1.63015 25.9898 1.63015H28.143L29.8594 0H25.9898ZM11.375 27.7125V8.15075V6.5206H10.5625H9.75H3.25C1.45234 6.5206 0 7.97755 0 9.7809V30.9728C0 32.7762 1.45234 34.2332 3.25 34.2332H8.125C9.92266 34.2332 11.375 32.7762 11.375 30.9728V29.3427H11.7203C13.0102 29.3427 14.2492 29.8623 15.1633 30.7793L17.2555 32.8781L18.8195 34.4471L18.8297 34.4573L21.3078 36.9433C23.5523 39.1949 27.1477 39.2968 29.5141 37.1674C29.6359 37.0553 29.7477 36.9433 29.8594 36.8312L30.3469 37.3202C32.6727 39.6534 36.4711 39.5413 38.6648 37.0757C39.4672 36.1791 39.9242 35.089 40.0664 33.9784C42.118 35.0788 44.6977 34.8343 46.5258 33.2143C47.6836 32.1853 48.3234 30.7895 48.4148 29.3529H53.625V30.983C53.625 32.7864 55.0773 34.2433 56.875 34.2433H61.75C63.5477 34.2433 65 32.7864 65 30.983V9.7809C65 7.97755 63.5477 6.5206 61.75 6.5206H55.25H54.4375H53.625V8.15075V27.7125H48.2828C48.0594 26.6835 47.5516 25.7156 46.7492 24.9107L36.6437 14.7732L38.0859 13.4385C38.4109 13.1329 38.4313 12.6133 38.1367 12.2873C37.8422 11.9612 37.3141 11.9408 36.9891 12.2363L29.2703 19.3886C27.6148 20.9169 25.0758 20.9474 23.4 19.4395C21.4805 17.7279 21.4398 14.7427 23.2984 12.9699L32.1852 4.52367C34.1453 2.65918 36.7555 1.61996 39.457 1.61996C41.9453 1.61996 44.3523 2.49617 46.2617 4.10594L50.375 7.59039V5.461L47.3078 2.87314C45.1039 1.01884 42.3211 0 39.457 0C36.3391 0 33.3328 1.20224 31.068 3.352L22.1812 11.7982C19.632 14.2231 19.693 18.3188 22.3234 20.6621C24.6289 22.7202 28.1125 22.6896 30.3773 20.5908L35.4656 15.8838L45.6016 26.062C47.257 27.7227 47.1758 30.4227 45.4289 31.9815C43.8242 33.4079 41.3867 33.3366 39.8633 31.8185L39.7617 31.7166C39.5078 31.4619 39.1219 31.4008 38.807 31.574C38.4922 31.7472 38.3195 32.1038 38.3906 32.4502C38.6344 33.6728 38.3195 34.9871 37.4359 35.9856C35.8719 37.7482 33.15 37.8297 31.4844 36.1588L30.357 35.0278C30.1844 34.8546 29.9508 34.7731 29.707 34.7935C29.4633 34.8139 29.25 34.9463 29.1078 35.1501C28.9148 35.4354 28.6813 35.7003 28.407 35.9448C26.6906 37.4833 24.0703 37.4119 22.4352 35.7818L18.3828 31.7166L16.2906 29.6178C15.0719 28.3952 13.4164 27.7125 11.6898 27.7125H11.375ZM9.75 8.15075V30.9728C9.75 31.8694 9.01875 32.603 8.125 32.603H3.25C2.35625 32.603 1.625 31.8694 1.625 30.9728V9.7809C1.625 8.88432 2.35625 8.15075 3.25 8.15075H9.75ZM61.75 8.15075C62.6437 8.15075 63.375 8.88432 63.375 9.7809V30.9728C63.375 31.8694 62.6437 32.603 61.75 32.603H56.875C55.9813 32.603 55.25 31.8694 55.25 30.9728V8.15075H61.75Z" fill="#4361EE"/>
</svg>
