<svg width="50" height="66" viewBox="0 0 50 66" fill="none" xmlns="http://www.w3.org/2000/svg">
<g clip-path="url(#clip0_2385_1013)">
<path d="M48.5454 51.5486L39.2911 42.2475L38.863 41.8584L38.7774 41.835C38.2792 41.4614 37.6566 41.1812 36.9249 40.9944C35.5629 40.6364 34.2319 40.7843 32.971 41.4303L29.2273 43.6641L29.1261 43.6174C29.0249 43.5707 28.6279 43.345 27.7406 42.5589C27.0479 41.944 26.1918 41.0178 25.1955 39.7958C24.1992 38.5816 23.094 36.916 21.8876 34.8067C20.6578 32.7675 19.7472 31.0007 19.1868 29.5685C18.6264 28.1208 18.2372 26.93 18.0426 25.996C17.8792 25.2877 17.7858 24.6573 17.7702 24.1202L20.8057 22.3378C21.7475 21.7852 22.4791 20.9913 22.9773 19.9873C23.5221 18.9054 23.6466 17.7301 23.3586 16.6482L20.2998 3.61896L20.2609 3.47108C20.0352 2.77058 19.6927 2.13235 19.249 1.57195C18.6809 0.863666 17.9415 0.3811 17.0464 0.147601C15.8789 -0.155948 14.6802 0.023068 13.5828 0.669083L4.16499 6.19523C3.49562 6.55327 2.88074 7.05918 2.33591 7.7052C1.80664 8.33565 1.38634 8.99723 1.10614 9.68216L1.02831 9.91566C0.997178 10.0246 0.888212 10.3671 0.701412 10.9508C0.444563 11.7603 0.24998 12.8266 0.117664 14.1965C-0.0146526 15.5274 -0.0224359 17.1464 0.0787472 19.0066C0.187714 20.8823 0.522396 23.0383 1.07501 25.42C1.61984 27.7861 2.48379 30.4558 3.62794 33.359C4.77987 36.27 6.37545 39.4378 8.36019 42.769C10.8586 47.081 13.4038 50.6691 15.9178 53.4399C18.424 56.1952 20.7824 58.4213 22.9306 60.048C25.141 61.7214 27.0401 62.8889 28.7291 63.6127C30.3636 64.321 31.5622 64.7647 32.3795 64.9748C32.7531 65.076 33.0644 65.1383 33.3057 65.1772C33.4225 65.1927 33.5003 65.2083 33.4769 65.2005L33.7416 65.2472C33.9984 65.2784 34.2553 65.2939 34.5199 65.2939C35.0258 65.2939 35.5395 65.2394 36.0688 65.1383C36.9016 64.9748 37.6488 64.6868 38.2792 64.2743L47.6893 58.7949C49.0124 58.0165 49.8063 56.8179 49.9931 55.3313L50.0087 55.199C50.0632 54.2805 49.853 52.8951 48.5532 51.5408L48.5454 51.5486Z" fill="#221F1F"/>
</g>
<defs>
<clipPath id="clip0_2385_1013">
<rect width="50" height="65.302" fill="white"/>
</clipPath>
</defs>
</svg>
