<svg width="60" height="48" viewBox="0 0 60 48" fill="none" xmlns="http://www.w3.org/2000/svg">
<path d="M25.5 1.49982H24C19.0312 1.49982 15 5.53059 15 10.4987V11.9986H16.5C21.4688 11.9986 25.5 7.9678 25.5 2.99964V1.49982ZM15 13.4984C14.8687 13.4984 14.7469 13.4796 14.625 13.4515C11.9812 16.3199 10.5 20.0789 10.5 23.9971C10.5 34.7677 19.2281 43.4948 30 43.4948H32.5875C36.4313 43.4948 40.2188 44.3853 43.6594 46.1101L44.5875 46.5788C44.9625 46.7663 45.1125 47.2162 44.925 47.5818C44.7375 47.9474 44.2875 48.1068 43.9219 47.9193L42.9938 47.4506C39.75 45.8383 36.1969 44.9946 32.5875 44.9946H30.0188H30H27.4125C23.8031 44.9946 20.2406 45.8383 17.0156 47.4506L16.0875 47.9193C15.7125 48.1068 15.2625 47.9568 15.0844 47.5818C14.9062 47.2069 15.0469 46.7569 15.4219 46.5788L16.35 46.1101C18.5156 45.0321 20.8125 44.2728 23.175 43.8604C20.7844 43.0355 18.5813 41.7981 16.6688 40.2233C11.2031 42.4449 4.8 40.3546 1.77187 35.1052L0.9375 33.6522C0.571875 33.0148 0.7875 32.1993 1.425 31.8337C3.17813 30.8213 5.10938 30.362 6.99375 30.4089C2.86875 28.506 0 24.3346 0 19.4977V17.8291C0 17.098 0.6 16.498 1.33125 16.498C3.35625 16.498 5.25938 17.0605 6.87188 18.0447C4.24688 14.342 3.84375 9.29889 6.27188 5.09939L7.10625 3.65581C7.47188 3.01839 8.2875 2.80279 8.925 3.16837C11.2031 4.48072 12.8156 6.51485 13.6312 8.81145C14.4375 3.81517 18.7781 0 24 0H25.5C26.325 0 27 0.67492 27 1.49982V2.99964C27 8.80208 22.3031 13.4984 16.5 13.4984H15ZM12.7031 13.3859C13.0688 9.94569 11.4562 6.44923 8.31562 4.55571L7.56562 5.8493C5.01562 10.2738 6.04688 15.7762 9.75 19.0009C10.3687 16.9667 11.3719 15.0545 12.7125 13.3765L12.7031 13.3859ZM10.9969 32.9398C8.35313 31.5712 5.10938 31.5056 2.31563 33.0523L3.06563 34.3459C5.5875 38.7235 10.7812 40.5889 15.4031 39.0891C13.5844 37.3362 12.0938 35.2552 10.9969 32.9398ZM9 23.9971C9 23.416 9.02812 22.8442 9.08438 22.2723C7.49063 19.7508 4.6875 18.0541 1.5 17.9979V19.4977C1.5 24.5408 5.0625 28.7591 9.80625 29.7621C9.28125 27.9342 9 25.9938 9 23.9971ZM45 11.9986V10.4987C45 5.53059 40.9688 1.49982 36 1.49982H34.5V2.99964C34.5 7.9678 38.5312 11.9986 43.5 11.9986H45ZM47.2969 13.3859C48.6281 15.0638 49.6312 16.9761 50.2594 19.0102C53.9625 15.7762 54.9937 10.2738 52.4344 5.85868L51.6844 4.56508C48.5344 6.45861 46.9313 9.95506 47.2969 13.3953V13.3859ZM53.1281 18.0447C54.7406 17.0605 56.6344 16.498 58.6687 16.498C59.4094 16.498 60 17.098 60 17.8291V19.4977C60 24.3346 57.1313 28.506 53.0063 30.4089C54.9 30.362 56.8219 30.8213 58.575 31.8337C59.2125 32.1993 59.4281 33.0148 59.0625 33.6522L58.2281 35.0958C55.2 40.3452 48.7969 42.4356 43.3313 40.214C42.6188 40.7951 41.8687 41.3388 41.0906 41.8263C40.425 41.6107 39.75 41.4232 39.0656 41.2545C45.2719 38.0017 49.5 31.4962 49.5 23.9971C49.5 20.0789 48.0187 16.3199 45.375 13.4515C45.2531 13.4796 45.1312 13.4984 45 13.4984H43.5C37.6969 13.4984 33 8.80208 33 2.99964V1.49982C33 0.67492 33.675 0 34.5 0H36C41.2219 0 45.5625 3.81517 46.3688 8.81145C47.1938 6.51485 48.7969 4.48072 51.075 3.16837C51.7125 2.80279 52.5281 3.01839 52.8938 3.65581L53.7281 5.09939C56.1469 9.28952 55.7531 14.342 53.1281 18.0447ZM49.0031 32.9398C47.9156 35.2552 46.4156 37.3268 44.5969 39.0891C49.2094 40.5889 54.4031 38.7235 56.925 34.3459L57.675 33.0523C54.8906 31.5056 51.6375 31.5712 48.9937 32.9398H49.0031ZM50.9156 22.2723C50.9719 22.8442 51 23.416 51 23.9971C51 25.9938 50.7188 27.9342 50.1938 29.7621C54.9375 28.7591 58.5 24.5408 58.5 19.4977V17.9979C55.3031 18.0541 52.5094 19.7508 50.9156 22.2723Z" fill="#4361EE"/>
</svg>
